<?xml version="1.0" encoding="UTF-8"?>
<svg xmlns="http://www.w3.org/2000/svg" version="1.1" viewBox="0 0 48 48">
  <defs>
    <style>
      .cls-1 {
        fill: #b4e6c0;
      }

      .cls-2 {
        fill: #b4e6c1;
      }
    </style>
  </defs>
  <!-- Generator: Adobe Illustrator 28.7.1, SVG Export Plug-In . SVG Version: 1.2.0 Build 142)  -->
  <g>
    <g id="Layer_1">
      <g>
        <path class="cls-1" d="M23.5,39.3c-4.7,0-9.4,0-14.1,0-3.2,0-4.6-1.3-4.6-4.4,0-5.3,0-10.7,0-16,0-2.3.4-2.5,2.5-1.3,4.8,2.9,9.6,5.8,14.3,8.9,1.6,1,2.9,1,4.4,0,4.4-2.8,8.8-5.6,13.3-8.4.6-.4,1.2-.7,1.9-1,1.3-.5,2-.2,1.9,1.3,0,5.6,0,11.2,0,16.7,0,2.6-1.8,4.2-4.5,4.2-5,0-10,0-15.1,0Z"/>
        <path class="cls-2" d="M23.9,8.7c4.7,0,9.4,0,14.1,0,1,0,1.9,0,2.8.5,1.9,1,2.1,2.3.2,3.5-5.1,3.3-10.3,6.6-15.4,9.9-.9.6-1.9.7-2.9.1-5.5-3.4-11.1-6.8-16.6-10.2-1-.6-1-1.6-.2-2.5.8-1,2-1.2,3.2-1.2,4.9,0,9.9,0,14.8,0Z"/>
      </g>
    </g>
  </g>
</svg>